<svg xmlns="http://www.w3.org/2000/svg" width="1200" height="675" viewBox="0 0 1200 675">
  <defs>
    <linearGradient id="bg" x1="0" y1="0" x2="1" y2="1">
      <stop offset="0" stop-color="#0b1220"/>
      <stop offset="1" stop-color="#2b0f1a"/>
    </linearGradient>
    <radialGradient id="glow" cx="70%" cy="35%" r="70%">
      <stop offset="0" stop-color="#ff6b6b" stop-opacity="0.35"/>
      <stop offset="1" stop-color="#ff6b6b" stop-opacity="0"/>
    </radialGradient>
  </defs>
  <rect width="1200" height="675" fill="url(#bg)"/>
  <rect width="1200" height="675" fill="url(#glow)"/>
  <g transform="translate(740 370)" fill="none" stroke="#ff6b6b" stroke-width="14" stroke-opacity="0.9">
    <path d="M0 -170 C90 -170 140 -120 140 -40 V70 C140 140 90 210 0 250 C-90 210 -140 140 -140 70 V-40 C-140 -120 -90 -170 0 -170 Z"/>
    <path d="M-50 -30 a50 50 0 0 1 100 0 v70 h-100z"/>
    <circle cx="0" cy="40" r="16"/>
  </g>
  <text x="60" y="110" fill="#e9eefc" font-family="Segoe UI, Arial" font-size="56" font-weight="800">Siber Güvenlik</text>
  <text x="60" y="170" fill="#a9b6d6" font-family="Segoe UI, Arial" font-size="26">Kimlik dorulama " Zafiyetler " Pratik</text>
</svg>

